<svg t="1655283622065" class="icon" viewBox="0 0 1024 1024" version="1.1" xmlns="http://www.w3.org/2000/svg" p-id="36491" width="200" height="200"><path d="M606.062794 1014.790554H418.52498a58.605567 58.605567 0 0 1-58.605567-51.070566l-16.744447-104.234186a381.354796 381.354796 0 0 1-51.489177-29.721395l-99.629464 39.768063a59.442789 59.442789 0 0 1-72.001125-26.791116L28.79796 681.994656a59.442789 59.442789 0 0 1 14.651392-76.187237l83.722239-64.884735v-29.721394a228.561711 228.561711 0 0 1 0-29.721395l-83.722239-64.466123a59.024178 59.024178 0 0 1-14.651392-75.350015l93.350296-161.165309A59.024178 59.024178 0 0 1 194.567992 154.963165l98.373631 39.349453a393.075909 393.075909 0 0 1 50.233343-29.721395l16.744447-104.234187a58.605567 58.605567 0 0 1 58.605567-50.233343h187.537814a58.605567 58.605567 0 0 1 58.605567 51.070565l13.395558 102.978354a380.098962 380.098962 0 0 1 51.489177 29.721394l99.629463-39.768063a59.442789 59.442789 0 0 1 72.001125 26.791116l95.024741 160.746698a59.442789 59.442789 0 0 1-14.651392 76.187237l-83.722238 64.884735v59.442789l83.722238 64.466124a59.024178 59.024178 0 0 1 14.651392 73.256958l-93.768907 163.258365a59.024178 59.024178 0 0 1-72.419736 25.535283l-98.37363-39.349452a392.238687 392.238687 0 0 1-51.489177 29.721394L664.668361 962.882766a58.605567 58.605567 0 0 1-58.605567 50.233343z m-176.653923-71.582514h167.444477l19.256115-132.699748 18.837503-7.535001a322.749229 322.749229 0 0 0 71.582514-41.86112l15.907226-12.139724 125.583357 49.814732 83.722239-142.327806-106.327243-83.722238 2.511667-20.093337a283.818388 283.818388 0 0 0 0-83.722239l-2.511667-20.093337 106.327243-83.722238-86.233906-139.816138-125.583358 49.814732-15.488614-13.81417a305.167559 305.167559 0 0 0-71.163902-41.861119l-18.837504-7.535001-20.093337-130.188081h-167.444477l-16.325836 132.699748-18.837504 7.535001a323.16784 323.16784 0 0 0-72.001125 39.349452l-15.907225 12.139725-125.583358-50.233343-83.722238 142.327805 106.327242 83.722238-1.255833 21.349171a329.865619 329.865619 0 0 0-2.930279 41.861119 329.865619 329.865619 0 0 0 2.930279 41.86112l2.511667 20.093337-106.327243 83.722238 83.722239 143.165028 125.583357-49.814732 16.325837 12.558336a305.58617 305.58617 0 0 0 71.163902 41.861119l18.837504 7.535001z m411.076191-137.723082zM184.521324 215.661788z m326.098118 495.21704a198.840316 198.840316 0 1 1 201.770595-198.421705 198.840316 198.840316 0 0 1-201.770595 198.421705z m0-326.098118a125.583358 125.583358 0 1 0 128.513636 125.583357 125.583358 125.583358 0 0 0-128.513636-125.583357z m0 0" p-id="36492" fill="#515151"></path><path d="M606.481405 1023.581389h-188.375036a69.070847 69.070847 0 0 1-68.233624-59.861401l-13.81417-97.536407a399.773688 399.773688 0 0 1-41.861119-25.116672l-94.606129 37.675007a69.908069 69.908069 0 0 1-83.722239-31.395839l-96.280574-160.328087a69.908069 69.908069 0 0 1 17.163059-90.838628l79.117515-61.535845v-24.698061-25.116671L37.170184 425.804607a69.489458 69.489458 0 0 1-17.58167-89.164184l93.768907-161.165309a69.489458 69.489458 0 0 1 83.722239-30.140006l93.768907 37.256396a404.797023 404.797023 0 0 1 41.861119-25.116671l14.23278-98.37363A69.070847 69.070847 0 0 1 418.52498 0.077024h187.537814a69.070847 69.070847 0 0 1 68.233624 59.861401l14.232781 97.536408a390.564242 390.564242 0 0 1 41.861119 25.116671l94.60613-37.675007a69.489458 69.489458 0 0 1 83.722238 31.395839l96.280574 160.328087a69.908069 69.908069 0 0 1-17.163059 89.164184l-79.117515 61.117234v50.233343l78.698904 59.024178a69.070847 69.070847 0 0 1 17.58167 88.326961l-93.768907 162.839754a69.489458 69.489458 0 0 1-83.722238 30.140006l-93.768907-37.256396a405.215634 405.215634 0 0 1-41.861119 25.116671l-14.651392 98.37363a69.070847 69.070847 0 0 1-70.745292 59.861401z m-187.956425-20.511949h187.956425a48.558898 48.558898 0 0 0 47.721676-41.861119l16.325837-109.257521 5.023334-2.511667a374.238406 374.238406 0 0 0 50.233343-28.884172l4.604723-2.930279 103.815576 41.86112a48.558898 48.558898 0 0 0 59.8614-21.349171l93.768907-161.58392a48.558898 48.558898 0 0 0-12.558336-61.954457l-87.90835-68.233624v-5.441946-28.884172-34.326118l87.90835-68.233624a49.396121 49.396121 0 0 0 11.721114-64.466123l-92.931685-158.653642a49.396121 49.396121 0 0 0-59.8614-22.186393l-104.234187 41.861119-4.604723-2.930278a369.633683 369.633683 0 0 0-50.233343-28.884173l-5.023334-2.511667-15.907226-108.420299a48.558898 48.558898 0 0 0-48.140287-41.861119H418.106369a48.558898 48.558898 0 0 0-48.140287 41.861119l-15.907225 108.001688-5.023335 2.511667a387.215353 387.215353 0 0 0-50.233343 28.884172l-4.604723 2.930279-103.815575-41.861119a48.977509 48.977509 0 0 0-59.861401 21.34917L37.588795 345.012647a48.977509 48.977509 0 0 0 12.558336 64.466123l87.908351 68.233624v5.860557a218.933653 218.933653 0 0 0-4.186112 28.884172v33.907507l-83.722239 67.815013a48.558898 48.558898 0 0 0-11.721113 62.791679L131.776314 837.299408a49.396121 49.396121 0 0 0 59.8614 22.186394l104.234187-41.86112 4.604723 2.930279a380.517573 380.517573 0 0 0 50.233343 28.884172l5.023334 2.511667 15.488614 108.83891a48.558898 48.558898 0 0 0 48.140288 41.861119z m185.863369-51.070565H420.618036l-19.674726-135.211415-13.395558-5.441946a316.470061 316.470061 0 0 1-73.256959-41.861119l-12.976947-9.209446-125.583357 51.070565-92.931685-158.653641 108.420299-83.722239v-14.651391a337.400621 337.400621 0 0 1-3.34889-41.86112 339.075065 339.075065 0 0 1 3.34889-41.861119v-14.23278l-108.420299-83.722239 92.931685-160.328086 8.790835 3.348889L301.313846 263.802075l11.302503-8.372223a334.888954 334.888954 0 0 1 74.094181-41.86112l13.814169-5.441945 19.674726-135.630026h183.351702l19.674726 135.630026 13.395558 5.441945a316.05145 316.05145 0 0 1 73.67557 41.86112l11.302502 8.790835 128.095025-51.070566 92.513073 158.235031-108.83891 83.722238v14.651392a290.516167 290.516167 0 0 1 0 83.722238v14.232781l108.83891 83.722238-91.675851 157.81642-7.535001-2.930279-119.722801-47.721676-11.302502 8.372224a334.888954 334.888954 0 0 1-73.67557 41.861119l-13.814169 5.441946z m-167.444476-20.511948h148.188362l18.837503-129.76947 24.279449-10.046669a313.958394 313.958394 0 0 0 69.489458-41.861119l20.511949-15.488614 122.653079 48.558898 74.094181-125.583357-103.815576-80.373349 3.34889-25.953894a272.515886 272.515886 0 0 0 0-79.536126l-3.34889-26.372505 103.815576-80.373349-74.512792-125.583358-120.560024 47.721676-20.511948-15.907225a296.376724 296.376724 0 0 0-68.652236-39.768064l-24.279449-9.628057-20.093337-127.676414h-147.769751l-18.837503 129.76947-24.279449 10.046669a313.121172 313.121172 0 0 0-69.489458 41.861119l-20.511949 15.488614-122.234468-53.163622-73.67557 125.583358 103.396965 82.047794-2.930278 25.116671a324.423674 324.423674 0 0 0-2.930279 41.861119 324.423674 324.423674 0 0 0 2.930279 39.768064l3.348889 25.953894-103.815576 79.954737 74.094181 127.676414 122.65308-48.97751 20.930559 15.907226a293.027834 293.027834 0 0 0 68.652236 39.768063l24.279449 10.046668z m73.675569-209.724208a209.305596 209.305596 0 0 1 0-418.611192 209.305596 209.305596 0 1 1 0 418.611192z m0-20.511948a188.793648 188.793648 0 1 0 0-376.750073 188.793648 188.793648 0 0 0 0 376.750073z m0-51.070565a137.932388 137.932388 0 0 1 0-275.864776 137.513777 137.513777 0 1 1 0 275.027553z m0-254.515605a117.001828 117.001828 0 0 0 0 234.003656 117.001828 117.001828 0 1 0 0-234.003656z" p-id="36493" fill="#515151"></path></svg>