<svg t="1655283975359" class="icon" viewBox="0 0 1024 1024" version="1.1" xmlns="http://www.w3.org/2000/svg" p-id="43993" width="200" height="200"><path d="M572 572H0V135C0 60.6 60.6 0 135 0h437v572zM90 482h392V90H135c-24.8 0-45 20.2-45 45v347zM572 1024H135C60.6 1024 0 963.4 0 889V662h572v362zM90 752v137c0 24.8 20.2 45 45 45h347V752H90zM889 1024H662V452h362v437c0 74.4-60.6 135-135 135z m-137-90h137c24.8 0 45-20.2 45-45V542H752v392zM1024 362H662V0h227c74.4 0 135 60.6 135 135v227z m-272-90h182V135c0-24.8-20.2-45-45-45H752v182z" p-id="43994" fill="#515151"></path></svg>