<svg t="1655283158482" class="icon" viewBox="0 0 1024 1024" version="1.1" xmlns="http://www.w3.org/2000/svg" p-id="32278" width="200" height="200"><path d="M286.506964 738.425313h299.79063v73.641599H286.506964zM286.506964 506.650184h433.711847v73.641599H286.506964zM286.506964 282.560706h446.621732v73.6416H286.506964z" fill="#515151" p-id="32279"></path><path d="M832.338899 92.931077H798.883711V60.279617a60.279617 60.279617 0 0 0-60.279617-60.279617H295.44844a60.279617 60.279617 0 0 0-60.279617 60.279617v32.65146h-43.552023A131.510032 131.510032 0 0 0 60.458399 224.089478v668.752121a131.510032 131.510032 0 0 0 131.158401 131.158401h640.722099a131.510032 131.510032 0 0 0 131.158401-131.158401V224.089478a131.510032 131.510032 0 0 0-131.158401-131.158401z m64.348492 769.167917c0 48.776257-44.908315 93.684572-93.684572 93.684572H220.95288c-48.776257 0-93.684572-44.908315-93.684572-93.684572V254.832082c0-48.776257 44.908315-93.684572 93.684572-93.684572h581.999706c48.776257 0 93.684572 44.908315 93.684572 93.684572z" fill="#515151" p-id="32280"></path></svg>