<svg t="1655282950650" class="icon" viewBox="0 0 1024 1024" version="1.1" xmlns="http://www.w3.org/2000/svg" p-id="31778" width="200" height="200"><path d="M861.403 90.423c-60.591 0-116.962 0-177.338 0 0-30.053 0-58.057 0-89.687 91.987 0 185.209 0 281.614 0 0 340.485 0 680.519 0 1023.264-309.658 0-617.623 0-929.678 0 0-339.392 0-679.434 0-1023.138 88.541 0 178.286 0 271.242 0 0 28.163 0 56.149 0 88.149-58.937 0-116.645 0-178.143 0 0 282.115 0 560.307 0 841.445 243.106 0 485.795 0 732.303 0C861.403 652.677 861.403 374.487 861.403 90.423z" p-id="31779" fill="#515151"></path><path d="M771.495 659.001c0 29.646 0 56.406 0 86.556-183.135 0-365.002 0-550.643 0 0-27.222 0-55.149 0-86.556C402.089 659.001 583.955 659.001 771.495 659.001z" p-id="31780" fill="#515151"></path><path d="M219.671 472.926c184.821 0 366.674 0 551.102 0 0 29.185 0 55.95 0 86.79-182.267 0-365.384 0-551.102 0C219.671 532.094 219.671 505.326 219.671 472.926z" p-id="31781" fill="#515151"></path><path d="M218.87 365.087c0-30.164 0-56.924 0-86.895 183.604 0 365.465 0 550.914 0 0 27.744 0 55.669 0 86.895C587.974 365.087 406.113 365.087 218.87 365.087z" p-id="31782" fill="#515151"></path><path d="M585.247 88.367c-62.626 0-119.905 0-180.052 0 0-29.921 0-57.729 0-88.367 60.065 0 118.584 0 180.052 0C585.247 29.31 585.247 57.121 585.247 88.367z" p-id="31783" fill="#515151"></path></svg>