<svg t="1655283316243" class="icon" viewBox="0 0 1024 1024" version="1.1" xmlns="http://www.w3.org/2000/svg" p-id="33926" width="200" height="200"><path d="M960 0h-896a64 64 0 0 0-64 64v341.333333a64 64 0 0 0 64 64h896a64 64 0 0 0 64-64v-341.333333a64 64 0 0 0-64-64z m-21.333333 85.333333v298.666667h-853.333334v-298.666667h853.333334zM469.333333 554.666667a42.666667 42.666667 0 0 1 4.992 85.034666L469.333333 640h-384v298.666667h384a42.666667 42.666667 0 0 1 42.368 37.674666l0.298667 4.992a42.666667 42.666667 0 0 1-37.674667 42.368L469.333333 1024h-405.333333a64 64 0 0 1-63.701333-57.856l-0.298667-6.144v-341.333333a64 64 0 0 1 57.856-63.701334l6.144-0.298666h405.333333z" p-id="33927" fill="#515151"></path><path d="M768 810.666667m-64 0a64 64 0 1 0 128 0 64 64 0 1 0-128 0Z" p-id="33928" fill="#515151"></path><path d="M888.96 597.333333h-241.92l-119.978667 213.333334 119.978667 213.333333h241.92l119.978667-213.333333-119.978667-213.333334z m-49.92 85.333334l71.978667 128-72.021334 128H696.96L624.938667 810.666667l71.978666-128h142.122667z" p-id="33929" fill="#515151"></path><path d="M213.333333 170.666667m21.333334 0l42.666666 0q21.333333 0 21.333334 21.333333l0 85.333333q0 21.333333-21.333334 21.333334l-42.666666 0q-21.333333 0-21.333334-21.333334l0-85.333333q0-21.333333 21.333334-21.333333Z" p-id="33930" fill="#515151"></path><path d="M213.333333 725.333333m21.333334 0l42.666666 0q21.333333 0 21.333334 21.333334l0 85.333333q0 21.333333-21.333334 21.333333l-42.666666 0q-21.333333 0-21.333334-21.333333l0-85.333333q0-21.333333 21.333334-21.333334Z" p-id="33931" fill="#515151"></path><path d="M384 170.666667m21.333333 0l42.666667 0q21.333333 0 21.333333 21.333333l0 85.333333q0 21.333333-21.333333 21.333334l-42.666667 0q-21.333333 0-21.333333-21.333334l0-85.333333q0-21.333333 21.333333-21.333333Z" p-id="33932" fill="#515151"></path><path d="M384 725.333333m21.333333 0l42.666667 0q21.333333 0 21.333333 21.333334l0 85.333333q0 21.333333-21.333333 21.333333l-42.666667 0q-21.333333 0-21.333333-21.333333l0-85.333333q0-21.333333 21.333333-21.333334Z" p-id="33933" fill="#515151"></path></svg>