<svg t="1655284024354" class="icon" viewBox="0 0 1024 1024" version="1.1" xmlns="http://www.w3.org/2000/svg" p-id="45156" width="200" height="200"><path d="M468.2 810.2l-93.6 31v-175.4l92-30.4c8.4-27 20.8-52.4 36.4-75.2l-158.4 52.4-172.8-57.2 172.8-57.2 164 54.2c51.8-71 135.8-117.2 230.6-117.2 23.4 0 46.2 2.8 68 8.2l0.2-0.2 1.2-1.2c0.2-0.4 0.6-0.6 0.8-1 0.4-0.4 0.6-0.8 0.8-1.2 0.2-0.4 0.6-0.8 0.8-1.2l0.6-1.2c0.2-0.4 0.6-1 0.8-1.4 0.2-0.4 0.4-0.8 0.6-1 0.2-0.6 0.4-1 0.8-1.6 0.2-0.4 0.2-0.8 0.4-1.2 0.2-0.6 0.4-1 0.6-1.6 0.2-0.4 0.2-0.8 0.4-1.4 0.2-0.4 0.2-1 0.4-1.4 0.2-0.6 0.2-1.2 0.2-1.8 0-0.4 0.2-0.8 0.2-1.2 0-0.8 0-1.4 0.2-2.2v-1V183.4c0-1 0-1.8-0.2-2.8 0-0.4 0-0.6-0.2-1 0-0.6-0.2-1.2-0.2-1.8 0-0.4-0.2-0.8-0.2-1-0.2-0.6-0.2-1-0.4-1.6 0-0.4-0.2-0.6-0.2-1-0.2-0.8-0.6-1.6-0.8-2.4-0.2-0.2-0.2-0.6-0.4-0.8-0.2-0.6-0.4-1-0.8-1.6-0.2-0.4-0.4-0.6-0.6-1-0.2-0.4-0.6-1-0.8-1.4-0.2-0.2-0.4-0.6-0.6-0.8-0.4-0.6-0.8-1-1.2-1.4-0.2-0.2-0.4-0.4-0.4-0.6-0.6-0.6-1.2-1.4-1.8-2l-0.2-0.2-1.6-1.6-0.6-0.6c-0.4-0.4-1-0.8-1.4-1-0.2-0.2-0.6-0.4-0.8-0.6-0.4-0.4-1-0.6-1.4-0.8-0.2-0.2-0.6-0.4-0.8-0.6-0.6-0.2-1.2-0.6-1.8-0.8-0.4-0.2-1-0.4-1.4-0.6-0.4-0.2-1-0.4-1.4-0.6l-0.4-0.2h-0.2l-268.6-88c-6.2-2-12.8-2-18.8 0L240.2 155h-0.2l-0.4 0.2c-0.4 0.2-1 0.4-1.4 0.6-0.6 0.2-1 0.4-1.4 0.6-0.6 0.2-1.2 0.6-1.6 0.8-0.4 0.2-0.6 0.4-0.8 0.6-0.4 0.2-1 0.6-1.4 0.8-0.2 0.2-0.6 0.4-0.8 0.6-0.4 0.4-1 0.8-1.4 1l-0.6 0.6c-0.6 0.4-1.2 1-1.6 1.6l-0.2 0.2c-0.6 0.6-1.2 1.2-1.8 2-0.2 0.2-0.4 0.4-0.4 0.6-0.4 0.4-0.8 1-1 1.4-0.2 0.2-0.4 0.6-0.6 0.8-0.2 0.4-0.6 1-0.8 1.4-0.2 0.4-0.4 0.6-0.6 1-0.2 0.6-0.6 1-0.8 1.6-0.2 0.2-0.2 0.6-0.4 0.8-0.4 0.8-0.6 1.6-0.8 2.4-0.2 0.4-0.2 0.6-0.2 1-0.2 0.6-0.2 1-0.4 1.6 0 0.4-0.2 0.8-0.2 1-0.2 0.6-0.2 1.2-0.2 1.8 0 0.4 0 0.6-0.2 1 0 1-0.2 1.8-0.2 2.8v239.4c0 0.8 0 1.4 0.2 2 0 0.4 0.2 0.8 0.2 1.2 0 0.6 0.2 1.2 0.2 1.6 0 0.4 0.2 1 0.4 1.4 0.2 0.4 0.2 0.8 0.4 1.4 0.2 0.6 0.4 1 0.6 1.6 0.2 0.4 0.2 0.8 0.4 1 0.2 0.6 0.4 1 0.8 1.6 0.2 0.4 0.4 0.8 0.6 1 0.2 0.4 0.6 1 0.8 1.4 0.2 0.4 0.4 0.8 0.6 1 0.2 0.4 0.6 0.8 0.8 1.2 0.2 0.4 0.6 0.8 0.8 1.2 0.2 0.4 0.6 0.6 0.8 1l1.2 1.2 0.8 0.8 1.2 1.2c0.4 0.2 0.6 0.4 1 0.8s0.8 0.6 1.4 1c0.4 0.2 0.8 0.4 1.2 0.8 0.4 0.2 0.8 0.6 1.2 0.8 0.6 0.2 1 0.6 1.6 0.8 0.4 0.2 0.6 0.4 1 0.4 0.6 0.2 1.4 0.6 2 0.8 0.2 0 0.4 0.2 0.6 0.2l0.4 0.2h0.2l28.2 9.4-202 66.6h-0.2l-0.4 0.2c-0.4 0.2-1 0.4-1.4 0.6-0.6 0.2-1 0.4-1.4 0.6-0.6 0.2-1.2 0.6-1.6 0.8-0.4 0.2-0.6 0.4-0.8 0.6-0.4 0.2-1 0.6-1.4 0.8-0.2 0.2-0.6 0.4-0.8 0.6-0.4 0.4-1 0.8-1.4 1l-0.6 0.6c-0.6 0.4-1.2 1-1.6 1.6l-0.2 0.2c-0.6 0.6-1.2 1.2-1.8 2-0.2 0.2-0.4 0.4-0.4 0.6-0.4 0.4-0.8 1-1 1.4-0.2 0.2-0.4 0.6-0.6 0.8-0.2 0.4-0.6 1-0.8 1.4-0.2 0.4-0.4 0.6-0.6 1-0.2 0.6-0.6 1-0.8 1.6-0.2 0.2-0.2 0.6-0.4 0.8-0.4 0.8-0.6 1.6-0.8 2.4-0.2 0.4-0.2 0.6-0.2 1-0.2 0.6-0.2 1-0.4 1.6 0 0.4-0.2 0.8-0.2 1-0.2 0.6-0.2 1.2-0.2 1.8 0 0.4 0 0.6-0.2 1 0 1-0.2 1.8-0.2 2.8v239.2c0 0.8 0 1.4 0.2 2.2 0 0.4 0 0.8 0.2 1.2 0 0.6 0.2 1.2 0.2 1.8 0 0.4 0.2 1 0.4 1.4 0.2 0.4 0.2 0.8 0.4 1.4 0.2 0.6 0.4 1 0.6 1.6 0.2 0.4 0.2 0.8 0.4 1.2 0.2 0.6 0.4 1 0.8 1.6 0.2 0.4 0.4 0.8 0.6 1 0.2 0.4 0.6 1 0.8 1.4l0.6 1.2c0.2 0.4 0.6 0.8 0.8 1.2 0.2 0.4 0.6 0.8 0.8 1.2 0.2 0.4 0.6 0.6 0.8 1l1.2 1.2 0.8 0.8 1.2 1.2c0.2 0.2 0.6 0.4 1 0.8s0.8 0.6 1.4 1c0.4 0.2 0.8 0.4 1.2 0.8 0.4 0.2 0.8 0.6 1.2 0.8 0.6 0.2 1 0.6 1.6 0.8 0.4 0.2 0.6 0.4 1 0.6 0.6 0.2 1.4 0.6 2 0.8 0.2 0 0.4 0.2 0.6 0.2l0.4 0.2h0.2L336.2 912h0.2c0.4 0.2 0.8 0.2 1.2 0.4 0.4 0.2 1 0.2 1.4 0.4 0.4 0 0.8 0.2 1.2 0.2 0.6 0.2 1.2 0.2 1.6 0.2 0.4 0 0.6 0 1 0.2 1 0 1.8 0.2 2.8 0.2s1.8 0 2.8-0.2c0.4 0 0.6 0 1-0.2 0.6 0 1.2-0.2 1.6-0.2 0.4 0 0.8-0.2 1.2-0.2 0.4-0.2 1-0.2 1.4-0.4 0.4-0.2 0.8-0.2 1.2-0.4h0.2l139-46c-11-18-19.4-36.4-25.8-55.8z m287.6-409.6l-208.4 69v-175.4l208.4-69v175.4z m-238.4-274l172.8 57.2-172.8 57.2-172.8-57.2 172.8-57.2z m-238.4 98.6l208.4 69v175.4l-208.4-69v-175.4z m35.8 616L106.4 772.2v-175.4l208.4 69v175.4zM719.2 812c-7.8 0-15.4-3-21.2-8.8l-59.6-59.6c-11.8-11.8-11.8-30.8 0-42.4 11.8-11.8 30.8-11.8 42.4 0l40.2 40.2 94-79.4c12.6-10.6 31.6-9 42.2 3.6 10.6 12.6 9 31.6-3.6 42.2l-115 97.2c-5.6 4.6-12.6 7-19.4 7z m20 147c-131.6 0-238.4-107-238.4-238.4S607.6 482 739.2 482s238.4 107 238.4 238.4-107 238.6-238.4 238.6z m0-417c-98.4 0-178.4 80-178.4 178.4s80 178.4 178.4 178.4 178.4-80 178.4-178.4-80-178.4-178.4-178.4z" p-id="45157" fill="#515151"></path></svg>