<svg t="1655283561552" class="icon" viewBox="0 0 1024 1024" version="1.1" xmlns="http://www.w3.org/2000/svg" p-id="35909" width="200" height="200"><path d="M873.629538 1.102769h-727.04A145.408 145.408 0 0 0 1.024 146.510769v727.118769c0 80.344615 65.063385 145.486769 145.408 145.48677h727.118769c80.344615 0 145.486769-65.142154 145.486769-145.48677v-727.04c0-80.344615-65.142154-145.486769-145.486769-145.486769h0.078769z m72.861539 872.763077a72.467692 72.467692 0 0 1-72.310154 72.625231H146.747077a72.467692 72.467692 0 0 1-51.593846-21.267692 72.152615 72.152615 0 0 1-21.425231-51.357539V146.589538c0-40.251077 32.689231-72.861538 72.940308-72.861538h727.04c40.172308 0 72.782769 32.610462 72.782769 72.782769v727.355077z m-118.075077-545.634461H537.521231a36.312615 36.312615 0 1 0 0 72.704h290.894769a36.312615 36.312615 0 1 0 0-72.704z m0 291.052307H537.521231a36.312615 36.312615 0 1 0 0 72.625231h290.894769a36.312615 36.312615 0 1 0 0-72.625231zM319.330462 528.384a127.291077 127.291077 0 1 0 0 254.503385 127.291077 127.291077 0 0 0 0-254.424616v-0.078769z m38.596923 165.888a54.587077 54.587077 0 1 1-77.193847-77.193846 54.587077 54.587077 0 0 1 77.193847 77.193846z m44.819692-427.953231l-119.729231 119.729231-47.104-46.946462a36.312615 36.312615 0 1 0-51.357538 51.357539l72.704 72.704c14.178462 14.178462 37.179077 14.178462 51.357538 0l145.486769-145.408a36.312615 36.312615 0 0 0-51.357538-51.436308z" p-id="35910" fill="#515151"></path></svg>